<svg xmlns="http://www.w3.org/2000/svg" viewBox="0 0 852.54 716.46"><defs><style>.cls-1{fill:#b4703d;}.cls-2{fill:#030800;}.cls-3{fill:#b77645;}.cls-4{fill:#fcfbe6;}</style></defs><g id="Layer_2" data-name="Layer 2"><g id="Layer_2-2" data-name="Layer 2"><path class="cls-1" d="M222.07,116.2l95,83.31,22.56,19.78L381,255.55,596.76,444.69,818.54,644.22s12.26,10.49,22.07,20.29c5.44,5.41,10.12,10.61,11.58,13.71a7.51,7.51,0,0,1,.31.79.64.64,0,0,1-.69.84,7.26,7.26,0,0,1-1.75-.69,33.08,33.08,0,0,1-6.39-4c-8.67-6.87-35.48-27.77-35.48-27.77l-94.42-77.26-71.35-59.66-88.52-75L365.18,273.85,323.4,238.07l-5.78-4.94-16.94-14.64L73.27,22A12.53,12.53,0,0,1,71.76,4.6L72,4.33l.44-.47.37-.38.29-.27.41-.34a11,11,0,0,1,1.66-1.16A14.5,14.5,0,0,1,77,.83s0,0,0,0q.47-.16.93-.3a7.92,7.92,0,0,1,1-.24,7.09,7.09,0,0,1,.94-.16l.08,0L80.78,0l.92,0h0c.3,0,.61,0,.92,0,0,0,0,0,.06,0,.26,0,.52.06.78.11a11.37,11.37,0,0,1,1.81.44l.41.14c.23.08.47.17.71.28h0l.64.3.35.19c.22.12.43.23.64.37l.68.45L89,2.5c.22.16.43.33.64.51Z"/><path class="cls-2" d="M222.07,116.2l95,83.31-16.41,19L73.27,22A12.53,12.53,0,0,1,71.76,4.6L72,4.33l.44-.47.37-.38.29-.27.41-.34a11,11,0,0,1,1.66-1.16A11.3,11.3,0,0,1,77,.83s0,0,0,0q.47-.16.93-.3a6.33,6.33,0,0,1,.95-.25h0a7.09,7.09,0,0,1,.94-.16l.08,0L80.78,0l.92,0h0c.3,0,.61,0,.92,0,0,0,0,0,.06,0,.26,0,.52.06.78.11a11.37,11.37,0,0,1,1.81.44l.41.14c.23.08.47.17.71.28h0l.64.3.35.19c.22.12.43.23.64.37l.68.45L89,2.5c.22.16.43.33.64.51Z"/><polygon class="cls-3" points="339.65 219.29 381.01 255.55 365.18 273.85 323.4 238.07 339.65 219.29"/><path class="cls-4" d="M86.43,1h0L314.91,202l525.7,462.48c5.44,5.41,10.12,10.61,11.58,13.71L312.37,205,78.89.28a7.09,7.09,0,0,1,.94-.16l.08,0L80.78,0l.92,0h0c.3,0,.61,0,.92,0,0,0,0,0,.06,0,.26,0,.52.06.78.11a11.37,11.37,0,0,1,1.81.44l.41.14C86,.83,86.19.92,86.43,1Z"/><path class="cls-1" d="M161.24,206.89,262.84,282,287,299.88l44.21,32.72L561.84,503.23,799.37,683.71s13.1,9.44,23.69,18.39c5.86,4.95,11,9.75,12.67,12.71.15.27.28.53.38.76a.64.64,0,0,1-.63.89,7.35,7.35,0,0,1-1.8-.53,33.74,33.74,0,0,1-6.7-3.46c-9.21-6.13-37.65-24.74-37.65-24.74l-100.5-69.18-76-53.55-94.42-67.41L316.91,352.15,272.32,320l-6.17-4.45-18.1-13.19-242.9-177a12.53,12.53,0,0,1-2.94-17.23l.21-.28c.12-.17.26-.34.39-.51l.34-.41c.1-.1.18-.2.28-.29s.24-.25.37-.37A11.2,11.2,0,0,1,5.36,105a12.75,12.75,0,0,1,1.74-1s0,0,0,0l.9-.38c.31-.12.62-.22.93-.32s.61-.17.93-.23l.08,0c.29-.06.58-.12.86-.15s.6-.08.92-.1h0c.31,0,.62,0,.92,0h.07l.78,0a13,13,0,0,1,1.85.3,3.06,3.06,0,0,1,.41.1c.24.07.49.13.74.22h0l.66.25.37.16c.22.1.44.19.66.31s.48.26.71.4l.23.13.68.46Z"/><path class="cls-2" d="M161.24,206.89,262.84,282l-14.79,20.27-242.9-177a12.53,12.53,0,0,1-2.94-17.23l.21-.28c.12-.17.26-.34.39-.51l.34-.41c.1-.1.18-.2.28-.29s.24-.25.37-.37A11.2,11.2,0,0,1,5.36,105a10.85,10.85,0,0,1,1.74-1s0,0,0,0l.9-.38a9.25,9.25,0,0,1,.93-.32H9c.31-.09.61-.17.93-.23l.08,0c.29-.06.58-.12.86-.15s.6-.08.92-.1h0c.31,0,.62,0,.92,0h.07l.78,0a13,13,0,0,1,1.85.3,3.06,3.06,0,0,1,.41.1c.24.07.49.13.74.22h0l.66.25.37.16c.22.1.44.19.66.31s.48.26.71.4l.23.13.68.46Z"/><polygon class="cls-3" points="286.96 299.88 331.17 332.6 316.91 352.15 272.32 319.95 286.96 299.88"/><path class="cls-4" d="M16.54,103.34h0L260.88,284.73,823.06,702.1c5.86,4.95,11,9.75,12.67,12.71L258.58,287.88,9,103.21c.31-.09.61-.17.93-.23l.08,0c.29-.06.58-.12.86-.15s.6-.08.92-.1h0c.31,0,.62,0,.92,0h.07l.78,0a13,13,0,0,1,1.85.3,3.06,3.06,0,0,1,.41.1C16,103.19,16.29,103.25,16.54,103.34Z"/></g></g></svg>